<svg xmlns="http://www.w3.org/2000/svg" viewBox="0 0 512 512">
  <defs>
    <linearGradient id="navy" x1="0%" y1="0%" x2="0%" y2="100%">
      <stop offset="0%" stop-color="#1e4d7b"/>
      <stop offset="100%" stop-color="#0d2240"/>
    </linearGradient>
    <linearGradient id="gold" x1="0%" y1="0%" x2="0%" y2="100%">
      <stop offset="0%" stop-color="#f0d060"/>
      <stop offset="100%" stop-color="#c49a2a"/>
    </linearGradient>
  </defs>

  <g>
    <circle cx="256" cy="256" r="186" fill="none" stroke="url(#navy)" stroke-width="24"/>
    <circle cx="256" cy="256" r="100" fill="none" stroke="url(#navy)" stroke-width="6"/>

    <g fill="url(#navy)" stroke="url(#navy)" stroke-linecap="round">
      <line x1="256" y1="156" x2="256" y2="82" stroke-width="14"/>
      <rect x="243" y="18" width="26" height="54" rx="13" stroke="none"/>

      <g transform="rotate(45,256,256)">
        <line x1="256" y1="156" x2="256" y2="82" stroke-width="14"/>
        <rect x="243" y="18" width="26" height="54" rx="13" stroke="none"/>
      </g>
      <g transform="rotate(90,256,256)">
        <line x1="256" y1="156" x2="256" y2="82" stroke-width="14"/>
        <rect x="243" y="18" width="26" height="54" rx="13" stroke="none"/>
      </g>
      <g transform="rotate(135,256,256)">
        <line x1="256" y1="156" x2="256" y2="82" stroke-width="14"/>
        <rect x="243" y="18" width="26" height="54" rx="13" stroke="none"/>
      </g>
      <g transform="rotate(180,256,256)">
        <line x1="256" y1="156" x2="256" y2="82" stroke-width="14"/>
        <rect x="243" y="18" width="26" height="54" rx="13" stroke="none"/>
      </g>
      <g transform="rotate(225,256,256)">
        <line x1="256" y1="156" x2="256" y2="82" stroke-width="14"/>
        <rect x="243" y="18" width="26" height="54" rx="13" stroke="none"/>
      </g>
      <g transform="rotate(270,256,256)">
        <line x1="256" y1="156" x2="256" y2="82" stroke-width="14"/>
        <rect x="243" y="18" width="26" height="54" rx="13" stroke="none"/>
      </g>
      <g transform="rotate(315,256,256)">
        <line x1="256" y1="156" x2="256" y2="82" stroke-width="14"/>
        <rect x="243" y="18" width="26" height="54" rx="13" stroke="none"/>
      </g>
    </g>

    <circle cx="256" cy="256" r="64" fill="url(#navy)"/>

    <text x="256" y="256" text-anchor="middle" dominant-baseline="central"
          font-family="Georgia,Times New Roman,serif" font-size="78" font-weight="bold"
          fill="url(#gold)">S</text>
  </g>
</svg>
